<svg xmlns="http://www.w3.org/2000/svg" viewBox="0 0 64 64" fill="none">
  <!-- Leather texture / hide shape -->
  <path d="M10 20 C10 14 16 10 24 10 L40 10 C48 10 54 14 54 20 L54 44 C54 50 48 54 40 54 L24 54 C16 54 10 50 10 44 Z" stroke="#e8903a" stroke-width="1.8" fill="none"/>
  <!-- Stitch line top -->
  <path d="M18 17 L46 17" stroke="#e8903a" stroke-width="1" stroke-dasharray="3 3" stroke-linecap="round"/>
  <!-- Stitch line bottom -->
  <path d="M18 47 L46 47" stroke="#e8903a" stroke-width="1" stroke-dasharray="3 3" stroke-linecap="round"/>
  <!-- Grain texture lines -->
  <path d="M20 26 Q32 24 44 26" stroke="#c1440e" stroke-width="1" stroke-linecap="round" fill="none"/>
  <path d="M20 32 Q32 30 44 32" stroke="#c1440e" stroke-width="1" stroke-linecap="round" fill="none"/>
  <path d="M20 38 Q32 36 44 38" stroke="#c1440e" stroke-width="1" stroke-linecap="round" fill="none"/>
  <!-- MV monogram -->
  <text x="32" y="35" font-family="Georgia, serif" font-size="10" fill="#e8903a" text-anchor="middle" opacity="0.6">MV</text>
</svg>
